SIPNOSIS

La paz entre los seres humanos y los gigantes llega a su fin cuando éstos secuestran a una princesa. Un grupo de hombres valientes encabezados por un joven granjero intentarán rescatarla. Adaptación para adultos del cuento infantil Jack y las Habichuelas Mágicas.



DATOS TECNICOS

Format                                   : Matroska
Format version                           : Version 4 / Version 2
File size                                : 4.17 GiB
Duration                                 : 1h 54mn
Overall bit rate                         : 5 224 Kbps


Video
ID                                       : 1
Format                                   : AVC
Duration                                 : 1h 54mn
Bit rate                                 : 4 200 Kbps
Width                                    : 1 920 pixels
Height                                   : 800 pixels
Display aspect ratio                     : 2.40:1
Frame rate mode                          : Constant
Frame rate                               : 23.976 fps


Audio #1
ID                                       : 2
Format                                   : AC-3
Duration                                 : 1h 54mn
Bit rate mode                            : Constant
Bit rate                                 : 640 Kbps
Channel(s)                               : 6 channels
Channel positions                        : Front: L C R, Side: L R, LFE
Sampling rate                            : 48.0 KHz
Bit depth                                : 16 bits
Compression mode                         : Lossy
Stream size                              : 524 MiB (12%)
Title                                    : Español Latino
Language                                 : Latin
Default                                  : Yes
Forced                                   : No

Audio #2
ID                                       : 3
Format                                   : AC-3
Duration                                 : 1h 54mn
Bit rate mode                            : Constant
Bit rate                                 : 384 Kbps
Channel(s)                               : 6 channels
Channel positions                        : Front: L C R, Side: L R, LFE
Sampling rate                            : 48.0 KHz
Bit depth                                : 16 bits
Compression mode                         : Lossy
Stream size                              : 314 MiB (7%)
Title                                    : Ingles
Language                                 : English
Default                                  : No
Forced                                   : No

Text
ID                                       : 4
Format                                   : UTF-8
Codec ID                                 : S_TEXT/UTF8
Codec ID/Info                            : UTF-8 Plain Text
Title                                    : Español Latino
Language                                 : Latin
Default                                  : Yes
Forced                                   : No

Menu
00:00:00.000                             : en:Chapter 1
00:10:21.496                             : en:Chapter 2
00:19:23.746                             : en:Chapter 3
00:29:52.207                             : en:Chapter 4
00:38:55.375                             : en:Chapter 5
00:49:25.045                             : en:Chapter 6
00:59:35.655                             : en:Chapter 7
01:09:26.454                             : en:Chapter 8
01:20:39.335                             : en:Chapter 9
01:29:51.303                             : en:Chapter 10
01:39:02.812                             : en:Chapter 11
01:45:57.726                             : en:Chapter 12